<svg id="Layer_3" data-name="Layer 3" xmlns="http://www.w3.org/2000/svg" xmlns:xlink="http://www.w3.org/1999/xlink" viewBox="0 0 2266.21 3000"><defs><style>.cls-1{fill:url(#linear-gradient);}.cls-2{fill:url(#linear-gradient-2);}</style><linearGradient id="linear-gradient" x1="-456.77" y1="1827.57" x2="1989.86" y2="1323.49" gradientUnits="userSpaceOnUse"><stop offset="0" stop-color="#355baa"/><stop offset="0.48" stop-color="#5066b0"/><stop offset="1" stop-color="#b1dcbd"/></linearGradient><linearGradient id="linear-gradient-2" x1="-89.68" y1="1696.74" x2="1943.52" y2="1392.61" gradientUnits="userSpaceOnUse"><stop offset="0" stop-color="#355baa"/><stop offset="0.51" stop-color="#5066b0"/><stop offset="1" stop-color="#7caddd"/></linearGradient></defs><path class="cls-1" d="M1849.61,121.58l-371,1097.19h684.57c56.89,0,103,41.93,103.05,93.7,0,23.92-10,46.94-28.06,64.35L590.06,2970.48c-39,37.71-104.16,39.53-145.61,4.07C415.81,2950,405,2912.8,416.6,2878.61l371-1097.38H103.05c-56.89,0-103-41.93-103-93.7,0-23.93,10-47,28.06-64.35L1676.15,29.52c32.79-31.73,85.29-38.72,126.7-16.87C1802.85,12.65,1863.76,79.84,1849.61,121.58Z"/><path class="cls-2" d="M590.06,2970.48,2238.15,1376.82c18-17.41,28.07-40.43,28.06-64.35,0-51.77-46.16-93.73-103.05-93.7H1478.59l371-1097.19c11.75-34.66-28.25-86.86-42.16-103.58L798.72,1500H1524.6L458.69,2984.72C499.71,3009.17,555.3,3004.11,590.06,2970.48Z"/></svg>